<?xml version="1.0" standalone="no"?><!DOCTYPE svg PUBLIC "-//W3C//DTD SVG 1.1//EN" "http://www.w3.org/Graphics/SVG/1.1/DTD/svg11.dtd"><svg t="1488510576307" class="icon" style="" viewBox="0 0 1024 1024" version="1.1" xmlns="http://www.w3.org/2000/svg" p-id="4358" xmlns:xlink="http://www.w3.org/1999/xlink" width="50" height="50"><defs><style type="text/css"></style></defs><path d="M428.69001 189.217978h125.556985c23.092997 0 49.679994-2.082 66.607992 4.712999 9.249999 3.71 19.275998 12.334999 24.757997 20.044998 27.805997 39.073995 9.287999 123.733985 18.271998 182.139979l0.593 37.729995 44.209995 94.305989c6.699999 14.984998 26.966997 50.139994 4.126999 61.894993-27.489997 14.151998-42.607995-36.707996-50.695994-52.461994l-43.029995-83.69999-7.072999-121.430986c-3.25-20.896998-0.19-44.354995-11.791998-55.995993l-1.174 0.587c-0.145 44.266995-1.766 92.873989-1.766 139.701983v58.361993l48.329994 111.404987 48.928995 111.404987c3.615 8.403999 19.079998 35.281996 17.678998 43.029995h-80.759991c-10.006999 0-26.461997-2.303-34.184996 1.18v218.688974c0 34.517996-0.58 53.187994-27.697997 60.714993-3.596 0.997-12.933998 3.741-18.864998 1.767-12.176999-4.051-21.766997-8.094999-27.117996-18.864998-7.419999-14.940998-4.126-40.733995-4.126-61.894992V809.329905c0-11.312999 2.227-64.103992-1.18-67.787992h-15.911998v219.275974c0 33.590996-1.054 53.723994-27.704997 60.714993-3.564 0.934-12.384999 3.685-18.277997 1.767-10.163999-3.306-20.063998-6.006999-25.344998-14.145998-8.731999-13.469998-6.485999-39.262995-6.485999-61.301993V759.813911c0-5.489999 1.451-15.722998-1.766-18.271998l-113.758986-1.18 116.117986-266.439969-0.593-111.989986c0-26.682997 3.893-59.459993-2.352999-82.526991l-1.767 1.18-8.258999 22.984997-4.713 80.166991-3.532999 70.733992-41.263996 80.16699c-9.116999 15.627998-23.072997 67.989992-50.694994 56.001994-28.000997-12.157999 3.722-64.474992 11.198999-80.759991l35.369996-74.859991 0.587-39.496995c9.166999-58.449993-8.914999-141.299983 18.271998-181.546979 7.431999-11.002999 20.738998-19.229998 35.369996-22.990997l15.912998-1.767zM508.859 0c55.862993 0.953 102.204988 54.922994 74.859992 113.177987-11.589999 24.694997-33.962996 40.303995-65.427993 45.389994-54.430994 8.787999-101.391988-53.213994-81.34699-106.691987 8.473999-22.606997 27.029997-40.335995 50.102994-48.335994L508.858 0z" p-id="4359" fill="#68d594"></path></svg>