<?xml version="1.0" standalone="no"?><!DOCTYPE svg PUBLIC "-//W3C//DTD SVG 1.1//EN" "http://www.w3.org/Graphics/SVG/1.1/DTD/svg11.dtd"><svg t="1488506735062" class="icon" style="" viewBox="0 0 1024 1024" version="1.1" xmlns="http://www.w3.org/2000/svg" p-id="2462" xmlns:xlink="http://www.w3.org/1999/xlink" width="50" height="50"><defs><style type="text/css"></style></defs><path d="M500.840067 0.014c53.579678-0.691996 82.164507 25.284848 92.126447 60.441637 8.744947 30.842815-3.29998 66.981598-18.776888 80.393517-16.770899 14.533913-32.817803 25.226848-64.545612 25.231849h-15.257908c-12.419925-4.506973-23.101861-11.566931-32.860803-18.186891-7.081957-4.806971-28.079831-26.481841-24.646852-33.450799-4.95197-1.60999-10.337938-33.530799-7.043958-45.773725 6.228963-23.139861 21.899868-49.765701 41.079754-59.267644L500.840067 0.014z m106.799359 311.597129v642.55114c0 19.297884 1.63699 40.805755-5.868965 52.812683-6.147963 9.844941-17.263896 11.62593-28.755827 16.432902-4.291974 1.791989-15.262908-1.029994-17.596895-1.75999-6.394962-1.989988-9.737942-1.007994-14.673912-3.519979-23.508859-11.957928-17.606894-55.279668-17.606894-90.371457l-0.584996-342.692942c-6.437961-0.160999-16.041904-0.938994-20.536877 1.169993 0.133999 95.753425-1.179993 196.313821-1.179993 293.994234v84.498493c0.005 13.653918 2.632984 26.249842-2.339986 36.964778-7.949952 17.113897-33.2998 27.349836-56.922658 19.366884-10.659936-3.593978-19.329884-13.29392-22.301866-22.881863-2.659984-8.599948 0.203999-15.750905-1.75999-26.995838l-0.589996-125.578246-0.579996-533.990792c-5.293968 0.101999-7.552955 1.222993-11.73793 2.343985v288.12627c-8.905947 12.714924-16.6039 37.151777-45.768725 28.749827-35.225788-10.139939-25.235848-71.803569-25.235849-116.189302V330.980012c0-66.922598-5.134969-110.256338 41.66375-132.032207 22.371866-10.407937 58.746647-7.629954 90.957454-7.629954h99.756401c25.703846 0 53.966676-0.389998 72.765563 4.109975 16.415901 3.932976 33.031802 16.121903 41.073753 28.756828 17.537895 27.537835 10.563937 111.429331 10.563937 157.263055v175.450946c0 33.643798 2.982982 61.412631-19.95288 72.174567-6.147963 2.885983-19.865881 2.359986-25.815845 0-25.269848-10.02194-22.892863-33.766797-22.886863-68.655588l-0.589996-248.805505H607.639426z" p-id="2463" fill="#7dc5eb"></path></svg>